# xmcd
#
# Track frame offsets: 
#        150
#        18088
#        36186
#        50806
#        67761
#        84043
#        99866
#        113716
#        129217
#        142893
#        158790
#        174883
#        188798
#        206910
#
# Disc length: 2958 seconds
#
# Revision: 0
# Processed by: cddbd v1.5.2PL0 Copyright (c) Steve Scherf et al.
# Submitted via: ExactAudioCopy v0.95b4
#
DISCID=a40b8c0e
DTITLE=Maria Lawson - Maria Lawson
DYEAR=2006
DGENRE=Soul
TTITLE0=Sleepwalking
TTITLE1=Black Mona Lisa
TTITLE2=Give All You Got
TTITLE3=The Poet
TTITLE4=Old School Lovin'
TTITLE5=Your Life
TTITLE6=Let It Break
TTITLE7=His World
TTITLE8=Overrated
TTITLE9=Naked With You
TTITLE10=Pretty Face
TTITLE11=Woman's Intuition
TTITLE12=It's Love
TTITLE13=You're Beautiful
EXTD=
EXTT0=
EXTT1=
EXTT2=
EXTT3=
EXTT4=
EXTT5=
EXTT6=
EXTT7=
EXTT8=
EXTT9=
EXTT10=
EXTT11=
EXTT12=
EXTT13=
PLAYORDER=
